<svg width="24" height="24" viewBox="0 0 24 24" fill="none" xmlns="http://www.w3.org/2000/svg">
<path d="M4.42036 11.3818C4.4571 11.3624 4.49386 11.3439 4.52969 11.3265C5.15249 11.0215 5.78356 10.7359 6.41372 10.4504C6.44771 10.4504 6.50465 10.4086 6.5368 10.395C6.58548 10.3727 6.63418 10.3513 6.68286 10.329L6.96304 10.2017C7.15043 10.1173 7.33689 10.0328 7.52428 9.94825C7.89815 9.77926 8.27201 9.61026 8.64588 9.44029C9.39362 9.1023 10.1423 8.76333 10.89 8.42534C11.6378 8.08735 12.3864 7.74838 13.1341 7.41039C13.8819 7.07239 14.6305 6.73343 15.3782 6.39543C16.126 6.05744 16.8747 5.71847 17.6224 5.38048C17.7887 5.30472 17.9687 5.19206 18.1469 5.15904C18.2966 5.13087 18.4427 5.07648 18.5933 5.04637C18.879 4.98907 19.1941 4.96576 19.4678 5.09105C19.5624 5.13476 19.6497 5.19594 19.7223 5.27267C20.0695 5.63592 20.0208 6.23226 19.9473 6.74314C19.4357 10.3037 18.924 13.8653 18.4114 17.4259C18.3416 17.9144 18.2461 18.4505 17.8814 18.7594C17.5728 19.0207 17.1337 19.0498 16.7525 18.9391C16.3712 18.8274 16.035 18.5933 15.7053 18.3631C14.3375 17.4055 12.9688 16.4478 11.601 15.4902C11.2758 15.2629 10.9139 14.9657 10.9176 14.5529C10.9194 14.3043 11.06 14.0829 11.2033 13.8857C12.3919 12.2462 14.1069 11.1196 15.3828 9.55587C15.5629 9.3354 15.7044 8.93719 15.4573 8.80995C15.3103 8.7342 15.1412 8.83715 15.0071 8.93524C13.3206 10.1736 11.635 11.4129 9.94846 12.6512C9.39822 13.0553 8.82135 13.471 8.15813 13.57C7.56471 13.6594 6.96763 13.4846 6.39351 13.3059C5.91217 13.1563 5.43173 13.0028 4.95314 12.8445C4.69869 12.761 4.43597 12.6707 4.2394 12.4813C4.04282 12.2919 3.92985 11.9733 4.04834 11.7208C4.12275 11.5625 4.26697 11.4624 4.41854 11.3808L4.42036 11.3818Z" fill="white"/>
</svg>
