<svg width="28" height="28" viewBox="0 0 28 28" fill="none" xmlns="http://www.w3.org/2000/svg">
<path d="M5.73958 12.4385C5.73958 12.4385 13.4794 9.10913 16.1637 7.93677C17.1927 7.46787 20.6824 5.96726 20.6824 5.96726C20.6824 5.96726 22.293 5.31079 22.1587 6.90513C22.114 7.56165 21.7561 9.85937 21.3982 12.3447C20.8613 15.8617 20.2797 19.7069 20.2797 19.7069C20.2797 19.7069 20.1902 20.7855 19.4297 20.973C18.6691 21.1606 17.4164 20.3166 17.1927 20.1289C17.0137 19.9883 13.8373 17.8781 12.6741 16.8464C12.3609 16.5651 12.003 16.0024 12.7188 15.3459C14.3294 13.7984 16.2532 11.8758 17.4164 10.6566C17.9533 10.0939 18.4901 8.78086 16.2532 10.3752C13.0768 12.673 9.94504 14.8301 9.94504 14.8301C9.94504 14.8301 9.22919 15.299 7.88705 14.8769C6.54483 14.4549 4.97897 13.8922 4.97897 13.8922C4.97897 13.8922 3.9053 13.1888 5.73958 12.4385Z" fill="#E02049"/>
</svg>
