<svg width="83" height="36" viewBox="0 0 83 36" fill="none" xmlns="http://www.w3.org/2000/svg">
<rect width="83" height="36" rx="18" fill="#E02049"/>
<path fill-rule="evenodd" clip-rule="evenodd" d="M19.5197 24.2465L15.469 26.841C15.0478 27.1107 14.4972 26.9725 14.2391 26.532C14.1131 26.317 14.0755 26.0578 14.1349 25.8133L14.762 23.233C14.9884 22.3014 15.598 21.5228 16.4267 21.1068L20.8458 18.8886C21.0519 18.7851 21.1388 18.5267 21.0398 18.3113C20.9597 18.1368 20.7786 18.0392 20.5962 18.0722L15.6771 18.9626C14.6771 19.1436 13.6517 18.8549 12.8739 18.1734L11.3199 16.8119C10.9413 16.4802 10.8916 15.8904 11.2089 15.4946C11.3632 15.3021 11.5851 15.1826 11.8246 15.163L16.5725 14.7745C16.9079 14.747 17.2003 14.5251 17.329 14.2001L19.1606 9.57745C19.3497 9.10034 19.8729 8.87379 20.3292 9.07144C20.5484 9.16635 20.7225 9.34836 20.8132 9.57745L22.6449 14.2001C22.7736 14.5251 23.066 14.747 23.4014 14.7745L28.1754 15.1651C28.6678 15.2054 29.0358 15.6554 28.9972 16.1703C28.9787 16.418 28.8666 16.6477 28.6858 16.809L25.0449 20.0541C24.7886 20.2825 24.6768 20.6422 24.7556 20.9846L25.875 25.8461C25.9906 26.3482 25.695 26.8532 25.2147 26.974C24.984 27.0321 24.7406 26.9919 24.5382 26.8623L20.4542 24.2465C20.1674 24.0629 19.8064 24.0629 19.5197 24.2465Z" fill="white"/>
<path d="M38.1408 17.316H40.4368V14.978H41.7948V17.316H44.1048V18.688H41.7948V21.04H40.4368V18.688H38.1408V17.316ZM48.9971 23H47.3731V15.384H45.3571V14.278C45.9078 14.2593 46.3931 14.1707 46.8131 14.012C47.2331 13.844 47.5645 13.5407 47.8071 13.102H48.9971V23ZM58.9069 18.044C58.9069 18.8 58.8275 19.4907 58.6689 20.116C58.5195 20.732 58.2815 21.2593 57.9549 21.698C57.6375 22.1367 57.2362 22.4773 56.7509 22.72C56.2655 22.9627 55.6915 23.084 55.0289 23.084C54.3662 23.084 53.7922 22.9673 53.3069 22.734C52.8215 22.4913 52.4202 22.1553 52.1029 21.726C51.7855 21.2967 51.5475 20.7787 51.3889 20.172C51.2302 19.5653 51.1509 18.8887 51.1509 18.142C51.1509 17.3767 51.2255 16.6767 51.3749 16.042C51.5242 15.4073 51.7575 14.8613 52.0749 14.404C52.3922 13.9467 52.7935 13.5967 53.2789 13.354C53.7735 13.102 54.3569 12.976 55.0289 12.976C55.6822 12.976 56.2515 13.0973 56.7369 13.34C57.2222 13.5827 57.6235 13.928 57.9409 14.376C58.2675 14.824 58.5102 15.3607 58.6689 15.986C58.8275 16.602 58.9069 17.288 58.9069 18.044ZM52.7609 18.044C52.7609 18.5573 52.7982 19.0333 52.8729 19.472C52.9475 19.9107 53.0735 20.2933 53.2509 20.62C53.4282 20.9373 53.6615 21.1893 53.9509 21.376C54.2402 21.5533 54.5995 21.642 55.0289 21.642C55.4489 21.642 55.8035 21.5533 56.0929 21.376C56.3822 21.1893 56.6155 20.9373 56.7929 20.62C56.9702 20.2933 57.0962 19.9107 57.1709 19.472C57.2455 19.0333 57.2829 18.5573 57.2829 18.044C57.2829 17.54 57.2455 17.0687 57.1709 16.63C57.0962 16.182 56.9702 15.7993 56.7929 15.482C56.6155 15.1553 56.3822 14.8987 56.0929 14.712C55.8035 14.5253 55.4489 14.432 55.0289 14.432C54.5995 14.432 54.2402 14.5253 53.9509 14.712C53.6615 14.8987 53.4282 15.1553 53.2509 15.482C53.0735 15.7993 52.9475 16.182 52.8729 16.63C52.7982 17.0687 52.7609 17.54 52.7609 18.044ZM68.108 18.044C68.108 18.8 68.0287 19.4907 67.87 20.116C67.7207 20.732 67.4827 21.2593 67.156 21.698C66.8387 22.1367 66.4374 22.4773 65.952 22.72C65.4667 22.9627 64.8927 23.084 64.23 23.084C63.5674 23.084 62.9934 22.9673 62.508 22.734C62.0227 22.4913 61.6214 22.1553 61.304 21.726C60.9867 21.2967 60.7487 20.7787 60.59 20.172C60.4314 19.5653 60.352 18.8887 60.352 18.142C60.352 17.3767 60.4267 16.6767 60.576 16.042C60.7254 15.4073 60.9587 14.8613 61.276 14.404C61.5934 13.9467 61.9947 13.5967 62.48 13.354C62.9747 13.102 63.558 12.976 64.23 12.976C64.8834 12.976 65.4527 13.0973 65.938 13.34C66.4234 13.5827 66.8247 13.928 67.142 14.376C67.4687 14.824 67.7114 15.3607 67.87 15.986C68.0287 16.602 68.108 17.288 68.108 18.044ZM61.962 18.044C61.962 18.5573 61.9994 19.0333 62.074 19.472C62.1487 19.9107 62.2747 20.2933 62.452 20.62C62.6294 20.9373 62.8627 21.1893 63.152 21.376C63.4414 21.5533 63.8007 21.642 64.23 21.642C64.65 21.642 65.0047 21.5533 65.294 21.376C65.5834 21.1893 65.8167 20.9373 65.994 20.62C66.1714 20.2933 66.2974 19.9107 66.372 19.472C66.4467 19.0333 66.484 18.5573 66.484 18.044C66.484 17.54 66.4467 17.0687 66.372 16.63C66.2974 16.182 66.1714 15.7993 65.994 15.482C65.8167 15.1553 65.5834 14.8987 65.294 14.712C65.0047 14.5253 64.65 14.432 64.23 14.432C63.8007 14.432 63.4414 14.5253 63.152 14.712C62.8627 14.8987 62.6294 15.1553 62.452 15.482C62.2747 15.7993 62.1487 16.182 62.074 16.63C61.9994 17.0687 61.962 17.54 61.962 18.044Z" fill="white"/>
</svg>
