<svg width="73" height="36" viewBox="0 0 73 36" fill="none" xmlns="http://www.w3.org/2000/svg">
<rect width="73" height="36" rx="18" fill="#E02049"/>
<path fill-rule="evenodd" clip-rule="evenodd" d="M19.5197 24.2465L15.469 26.841C15.0478 27.1107 14.4972 26.9725 14.2391 26.532C14.1131 26.317 14.0755 26.0578 14.1349 25.8133L14.762 23.233C14.9884 22.3014 15.598 21.5228 16.4267 21.1068L20.8458 18.8886C21.0519 18.7851 21.1388 18.5267 21.0398 18.3113C20.9597 18.1368 20.7786 18.0392 20.5962 18.0722L15.6771 18.9626C14.6771 19.1436 13.6517 18.8549 12.8739 18.1734L11.3199 16.8119C10.9413 16.4802 10.8916 15.8904 11.2089 15.4946C11.3632 15.3021 11.5851 15.1826 11.8246 15.163L16.5725 14.7745C16.9079 14.747 17.2003 14.5251 17.329 14.2001L19.1606 9.57745C19.3497 9.10034 19.8729 8.87379 20.3292 9.07144C20.5484 9.16635 20.7225 9.34836 20.8132 9.57745L22.6449 14.2001C22.7736 14.5251 23.066 14.747 23.4014 14.7745L28.1754 15.1651C28.6678 15.2054 29.0358 15.6554 28.9972 16.1703C28.9787 16.418 28.8666 16.6477 28.6858 16.809L25.0449 20.0541C24.7886 20.2825 24.6768 20.6422 24.7556 20.9846L25.875 25.8461C25.9906 26.3482 25.695 26.8532 25.2147 26.974C24.984 27.0321 24.7406 26.9919 24.5382 26.8623L20.4542 24.2465C20.1674 24.0629 19.8064 24.0629 19.5197 24.2465Z" fill="white"/>
<path d="M38.0422 17.316H40.3382V14.978H41.6962V17.316H44.0062V18.688H41.6962V21.04H40.3382V18.688H38.0422V17.316ZM48.8985 23H47.2745V15.384H45.2585V14.278C45.8092 14.2593 46.2945 14.1707 46.7145 14.012C47.1345 13.844 47.4658 13.5407 47.7085 13.102H48.8985V23ZM51.3462 18.646L51.8782 13.102H57.8422V14.544H53.2362L52.9562 17.12C53.2269 16.9427 53.5162 16.8073 53.8242 16.714C54.1416 16.6113 54.5196 16.56 54.9582 16.56C55.4529 16.56 55.9009 16.6347 56.3022 16.784C56.7036 16.924 57.0489 17.1293 57.3382 17.4C57.6276 17.6707 57.8469 18.002 57.9962 18.394C58.1549 18.786 58.2342 19.2293 58.2342 19.724C58.2342 20.256 58.1409 20.732 57.9542 21.152C57.7676 21.572 57.5109 21.9267 57.1842 22.216C56.8576 22.5053 56.4749 22.7293 56.0362 22.888C55.5976 23.0373 55.1216 23.112 54.6082 23.112C54.1696 23.112 53.7542 23.0607 53.3622 22.958C52.9796 22.8553 52.6296 22.6967 52.3122 22.482C52.0042 22.2673 51.7429 21.992 51.5282 21.656C51.3229 21.3107 51.1876 20.9047 51.1222 20.438H52.7322C52.7882 20.634 52.8769 20.8067 52.9982 20.956C53.1289 21.1053 53.2782 21.2313 53.4462 21.334C53.6142 21.4367 53.7962 21.516 53.9922 21.572C54.1882 21.6187 54.3842 21.642 54.5802 21.642C54.8602 21.642 55.1216 21.6093 55.3642 21.544C55.6069 21.4693 55.8169 21.3573 55.9942 21.208C56.1809 21.0587 56.3256 20.872 56.4282 20.648C56.5309 20.4147 56.5822 20.1347 56.5822 19.808C56.5822 19.2107 56.4049 18.7533 56.0502 18.436C55.7049 18.1187 55.2476 17.96 54.6782 17.96C54.3236 17.96 54.0016 18.0207 53.7122 18.142C53.4229 18.2633 53.1616 18.4313 52.9282 18.646H51.3462Z" fill="white"/>
</svg>
