<svg width="76" height="36" viewBox="0 0 76 36" fill="none" xmlns="http://www.w3.org/2000/svg">
<rect width="76" height="36" rx="18" fill="#E02049"/>
<path fill-rule="evenodd" clip-rule="evenodd" d="M19.5197 24.2465L15.469 26.841C15.0478 27.1107 14.4972 26.9725 14.2391 26.532C14.1131 26.317 14.0755 26.0578 14.1349 25.8133L14.762 23.233C14.9884 22.3014 15.598 21.5228 16.4267 21.1068L20.8458 18.8886C21.0519 18.7851 21.1388 18.5267 21.0398 18.3113C20.9597 18.1368 20.7786 18.0392 20.5962 18.0722L15.6771 18.9626C14.6771 19.1436 13.6517 18.8549 12.8739 18.1734L11.3199 16.8119C10.9413 16.4802 10.8916 15.8904 11.2089 15.4946C11.3632 15.3021 11.5851 15.1826 11.8246 15.163L16.5725 14.7745C16.9079 14.747 17.2003 14.5251 17.329 14.2001L19.1606 9.57745C19.3497 9.10034 19.8729 8.87379 20.3292 9.07144C20.5484 9.16635 20.7225 9.34836 20.8132 9.57745L22.6449 14.2001C22.7736 14.5251 23.066 14.747 23.4014 14.7745L28.1754 15.1651C28.6678 15.2054 29.0358 15.6554 28.9972 16.1703C28.9787 16.418 28.8666 16.6477 28.6858 16.809L25.0449 20.0541C24.7886 20.2825 24.6768 20.6422 24.7556 20.9846L25.875 25.8461C25.9906 26.3482 25.695 26.8532 25.2147 26.974C24.984 27.0321 24.7406 26.9919 24.5382 26.8623L20.4542 24.2465C20.1674 24.0629 19.8064 24.0629 19.5197 24.2465Z" fill="white"/>
<path d="M38.4348 17.316H40.7308V14.978H42.0888V17.316H44.3988V18.688H42.0888V21.04H40.7308V18.688H38.4348V17.316ZM49.4871 23.098C49.0298 23.098 48.5911 23.0513 48.1711 22.958C47.7511 22.8553 47.3731 22.7013 47.0371 22.496C46.7104 22.2813 46.4304 22.006 46.1971 21.67C45.9731 21.334 45.8284 20.928 45.7631 20.452H47.4011C47.4758 20.6947 47.5878 20.8907 47.7371 21.04C47.8864 21.1893 48.0544 21.3107 48.2411 21.404C48.4371 21.4973 48.6424 21.5627 48.8571 21.6C49.0718 21.628 49.2818 21.642 49.4871 21.642C49.7018 21.642 49.9258 21.6233 50.1591 21.586C50.3924 21.5393 50.6024 21.46 50.7891 21.348C50.9851 21.236 51.1438 21.082 51.2651 20.886C51.3958 20.6807 51.4611 20.4147 51.4611 20.088C51.4611 19.7893 51.4004 19.5467 51.2791 19.36C51.1671 19.1733 51.0131 19.0287 50.8171 18.926C50.6304 18.8233 50.4158 18.7533 50.1731 18.716C49.9398 18.6787 49.7018 18.66 49.4591 18.66H48.4791V17.288H49.0531C49.2771 17.288 49.5104 17.2647 49.7531 17.218C49.9958 17.1713 50.2151 17.092 50.4111 16.98C50.6164 16.868 50.7798 16.7187 50.9011 16.532C51.0318 16.3453 51.0971 16.112 51.0971 15.832C51.0971 15.5613 51.0504 15.3373 50.9571 15.16C50.8638 14.9733 50.7378 14.8287 50.5791 14.726C50.4204 14.614 50.2384 14.5393 50.0331 14.502C49.8371 14.4553 49.6271 14.432 49.4031 14.432C49.0204 14.432 48.6611 14.5207 48.3251 14.698C47.9891 14.866 47.7698 15.1647 47.6671 15.594H46.0711C46.1271 15.1367 46.2531 14.7447 46.4491 14.418C46.6451 14.082 46.8971 13.8113 47.2051 13.606C47.5131 13.3913 47.8584 13.2327 48.2411 13.13C48.6331 13.0273 49.0438 12.976 49.4731 12.976C49.8931 12.976 50.2944 13.0227 50.6771 13.116C51.0691 13.2093 51.4144 13.3587 51.7131 13.564C52.0118 13.7693 52.2498 14.04 52.4271 14.376C52.6044 14.7027 52.6931 15.104 52.6931 15.58C52.6931 15.972 52.5951 16.3593 52.3991 16.742C52.2124 17.1247 51.8624 17.4467 51.3491 17.708C51.9371 17.8667 52.3758 18.156 52.6651 18.576C52.9544 18.9867 53.0991 19.486 53.0991 20.074C53.0991 20.6153 52.9964 21.0773 52.7911 21.46C52.5951 21.8333 52.3338 22.146 52.0071 22.398C51.6898 22.6407 51.3118 22.818 50.8731 22.93C50.4344 23.042 49.9724 23.098 49.4871 23.098ZM56.9003 19.304C57.1243 19.108 57.3716 18.8933 57.6423 18.66C57.9223 18.4267 58.1836 18.184 58.4263 17.932C58.6783 17.6707 58.8836 17.3907 59.0423 17.092C59.2103 16.7933 59.2943 16.4713 59.2943 16.126C59.2943 15.622 59.145 15.216 58.8463 14.908C58.5476 14.6 58.1183 14.446 57.5583 14.446C57.1103 14.446 56.7323 14.5487 56.4243 14.754C56.1163 14.9593 55.925 15.2347 55.8503 15.58H54.2543C54.2916 15.1507 54.4083 14.768 54.6043 14.432C54.8096 14.096 55.0663 13.8207 55.3743 13.606C55.6823 13.3913 56.0183 13.2373 56.3823 13.144C56.7556 13.0413 57.1803 12.99 57.6563 12.99C58.1043 12.99 58.5243 13.0507 58.9163 13.172C59.3083 13.2933 59.649 13.4753 59.9383 13.718C60.237 13.9607 60.4703 14.2687 60.6383 14.642C60.8156 15.006 60.9043 15.4353 60.9043 15.93C60.9043 16.322 60.853 16.6813 60.7503 17.008C60.6476 17.3347 60.5076 17.638 60.3303 17.918C60.153 18.198 59.9476 18.4593 59.7143 18.702C59.4903 18.9447 59.2523 19.1733 59.0003 19.388C58.6643 19.6773 58.3656 19.9293 58.1043 20.144C57.8523 20.3493 57.6236 20.536 57.4183 20.704C57.213 20.872 57.0263 21.026 56.8583 21.166C56.6903 21.2967 56.5316 21.4273 56.3823 21.558H60.9043V23H54.1703V21.67L56.9003 19.304Z" fill="white"/>
</svg>
