<svg width="124" height="24" viewBox="0 0 124 24" fill="none" xmlns="http://www.w3.org/2000/svg">
<path d="M121.289 10.2263C121.221 9.7181 120.994 9.35669 120.607 9.1421C120.221 8.91622 119.738 8.79199 119.158 8.7694C118.953 8.7694 118.737 8.78634 118.51 8.82022C118.294 8.8541 118.09 8.92187 117.896 9.02351C117.703 9.12516 117.544 9.26069 117.419 9.4301C117.294 9.59952 117.231 9.80846 117.231 10.0569C117.22 10.3167 117.283 10.5369 117.419 10.7176C117.567 10.8983 117.76 11.0452 117.999 11.1581C118.169 11.2372 118.351 11.3106 118.544 11.3783C118.749 11.4348 118.948 11.4913 119.141 11.5477C119.334 11.5929 119.522 11.6325 119.704 11.6663C119.885 11.7002 120.045 11.7341 120.181 11.768C120.67 11.8696 121.141 11.9882 121.596 12.1238C122.051 12.2593 122.454 12.4456 122.807 12.6828C123.159 12.92 123.443 13.2362 123.659 13.6315C123.875 14.0268 123.989 14.5407 124 15.1732C124 15.8621 123.869 16.4494 123.608 16.935C123.346 17.4207 122.994 17.8103 122.551 18.104C122.13 18.3976 121.642 18.6122 121.085 18.7478C120.528 18.872 119.914 18.9228 119.243 18.9002C118.595 18.8889 117.987 18.8042 117.419 18.6461C116.851 18.4767 116.345 18.2339 115.902 17.9176C115.47 17.6014 115.123 17.2061 114.862 16.7318C114.6 16.2574 114.452 15.6983 114.418 15.0546H116.942C117.01 15.3482 117.123 15.591 117.283 15.783C117.442 15.975 117.629 16.1332 117.845 16.2574C118.061 16.3816 118.3 16.472 118.561 16.5285C118.834 16.5849 119.107 16.6188 119.38 16.6301C119.664 16.6414 119.937 16.6301 120.198 16.5962C120.459 16.5623 120.687 16.5002 120.88 16.4099C121.085 16.3082 121.244 16.1727 121.357 16.0033C121.471 15.8339 121.528 15.6193 121.528 15.3595C121.528 14.9981 121.414 14.7327 121.187 14.5633C120.971 14.3939 120.732 14.2753 120.471 14.2075C120.289 14.1623 120.124 14.1228 119.976 14.0889C119.84 14.0438 119.704 14.0099 119.567 13.9873C119.431 13.9534 119.289 13.9195 119.141 13.8856C118.993 13.8518 118.823 13.8122 118.629 13.767C118.198 13.6541 117.749 13.5299 117.283 13.3943C116.828 13.2475 116.419 13.0442 116.055 12.7845C115.612 12.4795 115.276 12.0899 115.049 11.6155C114.833 11.1412 114.736 10.616 114.759 10.04C114.793 9.36234 114.952 8.80328 115.237 8.36281C115.521 7.91104 115.884 7.55528 116.328 7.29551C116.771 7.03575 117.26 6.85504 117.794 6.7534C118.328 6.65175 118.862 6.60657 119.397 6.61787C119.988 6.62916 120.533 6.71387 121.033 6.87199C121.545 7.01881 121.988 7.23904 122.363 7.53269C122.75 7.82634 123.062 8.19904 123.301 8.65081C123.54 9.10257 123.687 9.62775 123.744 10.2263H121.289Z" fill="white"/>
<path d="M107.292 18.9002C106.349 18.9002 105.542 18.7647 104.871 18.4937C104.212 18.2226 103.672 17.8386 103.252 17.3417C102.842 16.8447 102.541 16.2518 102.348 15.5628C102.166 14.8626 102.075 14.0777 102.075 13.208V6.77036H104.547V13.3774C104.547 13.8179 104.593 14.2414 104.684 14.648C104.775 15.0433 104.928 15.3934 105.144 15.6984C105.36 16.0033 105.644 16.2518 105.997 16.4438C106.349 16.6245 106.792 16.7148 107.326 16.7148C107.849 16.7148 108.287 16.6245 108.639 16.4438C108.992 16.2518 109.27 16.0033 109.475 15.6984C109.691 15.3821 109.838 15.0264 109.918 14.6311C110.009 14.2245 110.054 13.8066 110.054 13.3774V6.77036H112.509V13.208C112.509 14.0551 112.413 14.8344 112.22 15.5459C112.038 16.2461 111.737 16.8447 111.316 17.3417C110.907 17.8386 110.367 18.2226 109.696 18.4937C109.037 18.7647 108.236 18.9002 107.292 18.9002Z" fill="white"/>
<path d="M91.4602 6.77036L97.1888 14.8005V6.77036H99.6099V18.7647H97.24L91.5114 10.7685V18.7647H89.0903V6.77036H91.4602Z" fill="white"/>
<path d="M77.7957 12.7167C77.7957 13.2362 77.8639 13.7332 78.0003 14.2075C78.1481 14.6706 78.3584 15.0828 78.6312 15.4442C78.9153 15.8056 79.2734 16.0993 79.7053 16.3252C80.1372 16.5398 80.643 16.6527 81.2227 16.664C81.7796 16.6753 82.2741 16.5793 82.706 16.376C83.1379 16.1614 83.496 15.8734 83.7801 15.512C84.0643 15.1393 84.2802 14.7158 84.428 14.2414C84.5758 13.7558 84.6496 13.2532 84.6496 12.7336C84.6496 12.2254 84.5758 11.7341 84.428 11.2598C84.2916 10.7854 84.0813 10.3675 83.7972 10.0061C83.5244 9.6334 83.172 9.33976 82.7401 9.12517C82.3082 8.91058 81.8024 8.80329 81.2227 8.80329C80.6544 8.80329 80.1543 8.91058 79.7223 9.12517C79.2904 9.33976 78.9324 9.62776 78.6482 9.98917C78.3641 10.3506 78.1481 10.7685 78.0003 11.2428C77.8639 11.7059 77.7957 12.1972 77.7957 12.7167ZM81.2397 6.61788C82.1604 6.61788 82.9902 6.7647 83.729 7.05835C84.4678 7.35199 85.0929 7.76988 85.6044 8.31199C86.1159 8.84282 86.508 9.48093 86.7808 10.2263C87.0536 10.9718 87.19 11.7962 87.19 12.6998C87.19 13.5807 87.0536 14.3995 86.7808 15.1562C86.508 15.9129 86.1159 16.568 85.6044 17.1214C85.0929 17.6748 84.4621 18.1096 83.7119 18.4259C82.9731 18.7308 82.132 18.8776 81.1886 18.8663C80.2452 18.8663 79.4041 18.7139 78.6653 18.4089C77.9378 18.0927 77.3184 17.6635 76.8069 17.1214C76.3068 16.5793 75.9203 15.9355 75.6475 15.1901C75.3861 14.4447 75.2554 13.6315 75.2554 12.7506C75.2554 11.8471 75.3918 11.0226 75.6646 10.2772C75.9487 9.52046 76.3465 8.87105 76.858 8.32893C77.3809 7.78682 78.0117 7.36893 78.7505 7.07529C79.4893 6.77035 80.3191 6.61788 81.2397 6.61788Z" fill="white"/>
<path d="M64.2815 18.7647V6.77036H69.635C70.192 6.77036 70.7035 6.82683 71.1695 6.93977C71.6469 7.05271 72.0617 7.256 72.4141 7.54965C72.6983 7.77553 72.937 8.07483 73.1302 8.44753C73.3348 8.80895 73.4371 9.24942 73.4371 9.76895C73.4484 10.3224 73.3461 10.8137 73.1302 11.2428C72.9256 11.672 72.5732 12.0334 72.0731 12.3271C72.4255 12.4287 72.7267 12.5812 72.9767 12.7845C73.2268 12.9878 73.4257 13.2249 73.5735 13.496C73.7326 13.7671 73.8463 14.0607 73.9145 14.3769C73.9827 14.6932 74.0111 15.0207 73.9997 15.3595C73.977 15.9017 73.8292 16.4042 73.5564 16.8673C73.295 17.3191 72.9483 17.6861 72.5164 17.9685C72.0049 18.3186 71.4423 18.5388 70.8285 18.6292C70.2147 18.7195 69.6066 18.7647 69.0042 18.7647H64.2815ZM68.936 11.6325C69.1861 11.6325 69.4361 11.6212 69.6862 11.5986C69.9362 11.5647 70.1693 11.4857 70.3852 11.3614C70.5671 11.2485 70.7205 11.096 70.8455 10.904C70.9706 10.712 71.0388 10.4861 71.0501 10.2264C71.0615 9.9553 71.016 9.73506 70.9137 9.56565C70.8114 9.39624 70.6864 9.26636 70.5387 9.176C70.3568 9.06306 70.1465 9.00095 69.9078 8.98965C69.6691 8.96706 69.4248 8.95577 69.1747 8.95577H66.7537V11.6325H68.936ZM66.7537 16.5962H69.0042C69.3338 16.5962 69.6805 16.5793 70.0442 16.5454C70.4193 16.5002 70.7376 16.3817 70.999 16.1897C71.1581 16.0654 71.2888 15.9129 71.3911 15.7322C71.4934 15.5402 71.5446 15.3031 71.5446 15.0207C71.5446 14.7609 71.4877 14.5407 71.3741 14.36C71.2604 14.1793 71.1183 14.0438 70.9478 13.9534C70.7546 13.8292 70.533 13.7558 70.2829 13.7332C70.0442 13.7106 69.7942 13.6993 69.5327 13.6993L66.7537 13.7162V16.5962Z" fill="white"/>
<path d="M52.8826 8.95577V6.77036H62.9247V8.95577H59.1397V18.7647H56.6676V8.95577H52.8826Z" fill="white"/>
<path d="M52.1632 6.77036V8.95577H46.0083V11.7511H51.3789V13.9365H46.0083V16.5962H52.1632V18.7647H43.5361V6.77036H52.1632Z" fill="white"/>
<path d="M33.0079 12.7506C33.0079 13.2702 33.0704 13.7671 33.1954 14.2415C33.3318 14.7045 33.5364 15.1168 33.8092 15.4782C34.082 15.8283 34.4287 16.1106 34.8492 16.3252C35.2698 16.5398 35.7699 16.6528 36.3496 16.664C36.7019 16.6753 37.0429 16.6358 37.3725 16.5455C37.7135 16.4551 38.0147 16.3196 38.2762 16.1389C38.5376 15.9469 38.7479 15.704 38.907 15.4104C39.0775 15.1168 39.1798 14.7723 39.2139 14.377H36.1791V12.3949H41.6349C41.6463 12.824 41.6406 13.2645 41.6179 13.7163C41.5951 14.168 41.5326 14.6085 41.4303 15.0377C41.3394 15.4669 41.1973 15.8848 41.0041 16.2913C40.8222 16.6866 40.5778 17.0424 40.2709 17.3586C39.839 17.8104 39.2991 18.1775 38.6512 18.4598C38.0034 18.7309 37.2248 18.8664 36.3155 18.8664C35.3721 18.8664 34.531 18.7196 33.7921 18.4259C33.0647 18.121 32.4509 17.6975 31.9508 17.1553C31.462 16.6132 31.087 15.9695 30.8255 15.224C30.5755 14.4786 30.4504 13.6598 30.4504 12.7676C30.4504 11.8528 30.5755 11.017 30.8255 10.2603C31.087 9.50358 31.4677 8.85981 31.9678 8.32899C32.468 7.78687 33.0817 7.36899 33.8092 7.07534C34.548 6.7704 35.3891 6.61793 36.3325 6.61793C36.9804 6.61793 37.5999 6.70264 38.1909 6.87205C38.782 7.04146 39.3048 7.29558 39.7595 7.6344C40.2141 7.97323 40.5892 8.39675 40.8847 8.90499C41.1803 9.41323 41.3564 10.0062 41.4133 10.6838H39.0263C38.9127 10.1078 38.5944 9.64476 38.0716 9.29464C37.5601 8.94452 36.9463 8.78076 36.2302 8.80334C35.6619 8.82593 35.1731 8.95017 34.764 9.17605C34.3548 9.39064 34.0195 9.67864 33.758 10.04C33.4966 10.4015 33.3034 10.8193 33.1784 11.2937C33.0647 11.7568 33.0079 12.2424 33.0079 12.7506Z" fill="white"/>
<path d="M12.3994 11.0742C9.72082 11.0742 9.65771 14.0004 9.65771 15.1963C9.65771 16.3922 10.4799 18.4005 13.0528 18.4005C15.4775 18.4005 16.1524 17.2043 16.1524 16.0295C16.1524 14.8547 15.0768 11.0742 12.3994 11.0742Z" fill="#E02049"/>
<path d="M18.3491 18.0925L18.5302 19.1271L20.34 19.6115L20.0689 18.5378L18.3491 18.0925Z" fill="#E02049"/>
<path d="M22.6154 18.2235L22.4218 17.5558L21.6333 18.5506L21.7626 19.4021L22.6154 18.2235Z" fill="#E02049"/>
<path d="M23.398 15.8002L22.6257 15.7977L22.9039 12.6943V12.6903C22.9103 12.6217 22.9082 12.5519 22.8978 12.4824L22.7611 11.6042C22.5596 10.314 21.8431 9.13758 20.7954 8.37671L19.1828 7.20624C18.5922 6.77739 17.9495 6.41992 17.2725 6.14375L17.1962 6.11706L16.6629 5.96315C15.1821 2.84147 10.3667 0.374539 10.1391 0.259416L9.62695 0L9.30192 5.19763L1.69006 4.98693L5.63507 9.44075L0.0499329 11.62L4.39257 13.5371L0 15.3052L4.05682 18.0632L1.60429 21.9613L7.7782 20.7939L9.42568 22.5577L9.85088 22.7889L16.6687 23.9888L16.8262 24L19.9894 23.8892L20.584 23.5681L21.5091 22.2704L21.1327 21.5917L21.428 21.5902L21.6641 21.5511L23.0816 21.0772L23.5993 20.4551L24.1534 16.6904L23.398 15.8002ZM22.8417 20.3406L21.4243 20.8144L17.433 20.8343L14.9603 19.6557L12.9813 20.1072L8.37709 18.8893L12.5276 21.2802L14.525 20.9463L17.0066 22.1245L20.8882 21.8161L19.9631 23.1138L16.7998 23.2245L9.98199 22.0246L8.0343 19.9393L3.03856 21.09L5.10847 17.8438L1.46245 15.3651L5.43534 13.9973L5.96928 13.8136L6.08569 13.4453L6.38713 12.4926L6.64322 11.683L6.82212 11.117C7.36097 9.41438 8.53455 8.00279 10.0788 7.1721C11.9747 7.85447 16.654 9.57977 16.654 9.57977C16.654 9.57977 16.5198 7.83461 16.3259 7.21027C16.2622 7.00485 16.1868 6.80377 16.1014 6.60766L16.9864 6.86304C17.5991 7.11315 18.1872 7.43773 18.7368 7.83678L20.3494 9.00725C21.2377 9.65238 21.8339 10.6317 22.0048 11.7255L22.1408 12.5997C22.1558 12.699 22.021 12.7415 21.9778 12.6515C21.5134 11.6821 21.2077 10.7267 20.5083 10.7999C20.1956 10.8325 19.9373 11.0609 19.8393 11.3637C19.1252 13.5728 19.5569 14.6942 20.1894 15.9007L17.7985 16.6985L17.5396 17.2614C18.7031 16.6591 20.5451 16.5672 20.5451 16.5672L23.3959 16.5759L22.8417 20.3406Z" fill="#E02049"/>
</svg>
