<svg width="144" height="28" viewBox="0 0 144 28" fill="none" xmlns="http://www.w3.org/2000/svg">
<path d="M140.852 11.9306C140.773 11.3377 140.509 10.916 140.06 10.6657C139.611 10.4021 139.05 10.2572 138.377 10.2308C138.139 10.2308 137.888 10.2506 137.624 10.2901C137.374 10.3297 137.136 10.4087 136.912 10.5273C136.687 10.6459 136.502 10.804 136.357 11.0017C136.212 11.1993 136.139 11.4431 136.139 11.733C136.126 12.036 136.199 12.293 136.357 12.5038C136.529 12.7146 136.753 12.8859 137.03 13.0177C137.228 13.1099 137.44 13.1955 137.664 13.2746C137.902 13.3405 138.133 13.4064 138.357 13.4723C138.581 13.525 138.799 13.5711 139.01 13.6106C139.222 13.6501 139.406 13.6897 139.565 13.7292C140.132 13.8478 140.68 13.9861 141.208 14.1443C141.736 14.3024 142.205 14.5198 142.614 14.7965C143.023 15.0732 143.353 15.4421 143.604 15.9033C143.855 16.3645 143.987 16.964 144 17.7019C144 18.5057 143.848 19.1908 143.544 19.7574C143.241 20.324 142.832 20.7786 142.317 21.1212C141.828 21.4638 141.261 21.7141 140.614 21.8723C139.967 22.0172 139.255 22.0765 138.476 22.0501C137.723 22.037 137.017 21.9381 136.357 21.7537C135.697 21.556 135.11 21.2727 134.595 20.9038C134.094 20.5348 133.691 20.0737 133.387 19.5203C133.084 18.9668 132.912 18.3146 132.873 17.5635H135.803C135.882 17.9061 136.014 18.1894 136.199 18.4134C136.384 18.6374 136.601 18.8219 136.852 18.9668C137.103 19.1118 137.38 19.2172 137.684 19.2831C138.001 19.349 138.317 19.3885 138.634 19.4017C138.964 19.4148 139.281 19.4017 139.585 19.3621C139.888 19.3226 140.152 19.2501 140.377 19.1447C140.614 19.0261 140.799 18.868 140.931 18.6704C141.063 18.4727 141.129 18.2224 141.129 17.9193C141.129 17.4977 140.997 17.188 140.733 16.9904C140.482 16.7927 140.205 16.6544 139.901 16.5753C139.69 16.5226 139.499 16.4765 139.327 16.437C139.169 16.3843 139.01 16.3447 138.852 16.3184C138.694 16.2788 138.529 16.2393 138.357 16.1998C138.185 16.1603 137.987 16.1141 137.763 16.0614C137.261 15.9297 136.74 15.7847 136.199 15.6266C135.671 15.4553 135.196 15.2181 134.773 14.9151C134.259 14.5593 133.869 14.1047 133.605 13.5513C133.354 12.9979 133.242 12.3852 133.269 11.7132C133.308 10.9226 133.493 10.2704 133.823 9.75649C134.153 9.22943 134.575 8.81437 135.09 8.51131C135.605 8.20826 136.172 7.99743 136.793 7.87884C137.413 7.76026 138.034 7.70755 138.654 7.72073C139.34 7.7339 139.974 7.83273 140.555 8.0172C141.149 8.18849 141.663 8.44543 142.099 8.78802C142.548 9.13061 142.911 9.56543 143.188 10.0925C143.465 10.6195 143.637 11.2323 143.703 11.9306H140.852Z" fill="white" fill-opacity="0.4"/>
<path d="M124.597 22.05C123.502 22.05 122.565 21.8918 121.786 21.5756C121.02 21.2594 120.393 20.8114 119.905 20.2316C119.43 19.6518 119.08 18.9601 118.856 18.1563C118.644 17.3394 118.539 16.4236 118.539 15.409V7.89844H121.41V15.6067C121.41 16.1206 121.463 16.6147 121.568 17.089C121.674 17.5502 121.852 17.9587 122.103 18.3144C122.354 18.6702 122.683 18.9601 123.093 19.1841C123.502 19.3949 124.017 19.5003 124.637 19.5003C125.244 19.5003 125.752 19.3949 126.162 19.1841C126.571 18.9601 126.894 18.6702 127.132 18.3144C127.383 17.9455 127.554 17.5304 127.647 17.0693C127.752 16.5949 127.805 16.1074 127.805 15.6067V7.89844H130.656V15.409C130.656 16.3973 130.544 17.3064 130.319 18.1366C130.108 18.9535 129.758 19.6518 129.27 20.2316C128.795 20.8114 128.168 21.2594 127.389 21.5756C126.624 21.8918 125.693 22.05 124.597 22.05Z" fill="white" fill-opacity="0.4"/>
<path d="M106.212 7.89844L112.864 17.2669V7.89844H115.676V21.8918H112.924L106.271 12.5629V21.8918H103.46V7.89844H106.212Z" fill="white" fill-opacity="0.4"/>
<path d="M90.3433 14.836C90.3433 15.4421 90.4225 16.0219 90.5809 16.5753C90.7525 17.1155 90.9967 17.5965 91.3135 18.0181C91.6435 18.4398 92.0592 18.7824 92.5608 19.0459C93.0624 19.2962 93.6498 19.428 94.323 19.4412C94.9698 19.4543 95.5439 19.3423 96.0455 19.1052C96.5471 18.8548 96.9629 18.5188 97.2929 18.0972C97.6229 17.6623 97.8737 17.1682 98.0453 16.6148C98.2169 16.0482 98.3027 15.4619 98.3027 14.8558C98.3027 14.2628 98.2169 13.6896 98.0453 13.1362C97.8869 12.5828 97.6427 12.0953 97.3127 11.6736C96.9959 11.2388 96.5867 10.8962 96.0851 10.6459C95.5835 10.3955 94.9962 10.2704 94.323 10.2704C93.663 10.2704 93.0822 10.3955 92.5806 10.6459C92.079 10.8962 91.6633 11.2322 91.3333 11.6539C91.0033 12.0755 90.7525 12.5631 90.5809 13.1165C90.4225 13.6567 90.3433 14.2299 90.3433 14.836ZM94.3428 7.7207C95.4119 7.7207 96.3755 7.892 97.2335 8.23458C98.0915 8.57717 98.8174 9.0647 99.4114 9.69717C100.005 10.3165 100.461 11.0609 100.778 11.9306C101.094 12.8002 101.253 13.7621 101.253 14.8162C101.253 15.844 101.094 16.7993 100.778 17.6821C100.461 18.5649 100.005 19.3292 99.4114 19.9748C98.8174 20.6205 98.0849 21.1278 97.2137 21.4967C96.3557 21.8525 95.379 22.0238 94.2834 22.0106C93.1878 22.0106 92.211 21.8327 91.3531 21.4769C90.5083 21.108 89.7889 20.6073 89.1949 19.9748C88.6141 19.3424 88.1654 18.5913 87.8486 17.7216C87.545 16.852 87.3932 15.9033 87.3932 14.8755C87.3932 13.8214 87.5516 12.8595 87.8684 11.9899C88.1984 11.1071 88.6604 10.3494 89.2543 9.71694C89.8615 9.08447 90.5941 8.59694 91.4521 8.25435C92.31 7.89859 93.2736 7.7207 94.3428 7.7207Z" fill="white" fill-opacity="0.4"/>
<path d="M74.6495 21.8918V7.89844H80.8665C81.5133 7.89844 82.1072 7.96432 82.6484 8.09608C83.2028 8.22785 83.6846 8.46503 84.0938 8.80761C84.4238 9.07114 84.701 9.42032 84.9254 9.85514C85.163 10.2768 85.2818 10.7907 85.2818 11.3968C85.295 12.0424 85.1762 12.6156 84.9254 13.1163C84.6878 13.617 84.2786 14.0387 83.6978 14.3813C84.107 14.4998 84.4568 14.6777 84.7472 14.9149C85.0376 15.1521 85.2685 15.4288 85.4401 15.745C85.6249 16.0613 85.7569 16.4039 85.8361 16.7728C85.9153 17.1417 85.9483 17.5239 85.9351 17.9191C85.9087 18.5516 85.7371 19.138 85.4203 19.6782C85.1168 20.2053 84.7142 20.6335 84.2126 20.9629C83.6186 21.3714 82.9652 21.6283 82.2524 21.7337C81.5397 21.8391 80.8335 21.8918 80.1339 21.8918H74.6495ZM80.0547 13.5709C80.3451 13.5709 80.6355 13.5577 80.9259 13.5314C81.2163 13.4918 81.4869 13.3996 81.7377 13.2547C81.9489 13.1229 82.127 12.945 82.2722 12.721C82.4174 12.497 82.4966 12.2335 82.5098 11.9304C82.523 11.6142 82.4702 11.3573 82.3514 11.1596C82.2326 10.962 82.0874 10.8104 81.9159 10.705C81.7047 10.5733 81.4605 10.5008 81.1833 10.4876C80.9061 10.4613 80.6223 10.4481 80.3319 10.4481H77.5204V13.5709H80.0547ZM77.5204 19.362H80.1339C80.5167 19.362 80.9193 19.3422 81.3417 19.3027C81.7773 19.25 82.1468 19.1116 82.4504 18.8876C82.6352 18.7427 82.787 18.5648 82.9058 18.354C83.0246 18.13 83.084 17.8533 83.084 17.5238C83.084 17.2208 83.018 16.9639 82.886 16.753C82.754 16.5422 82.589 16.3841 82.391 16.2787C82.1666 16.1337 81.9093 16.0481 81.6189 16.0217C81.3417 15.9954 81.0513 15.9822 80.7477 15.9822L77.5204 16.002V19.362Z" fill="white" fill-opacity="0.4"/>
<path d="M61.4119 10.4481V7.89844H73.0738V10.4481H68.6783V21.8918H65.8074V10.4481H61.4119Z" fill="white" fill-opacity="0.4"/>
<path d="M60.5767 7.89844V10.4481H53.4291V13.7093H59.6659V16.2589H53.4291V19.362H60.5767V21.8918H50.5582V7.89844H60.5767Z" fill="white" fill-opacity="0.4"/>
<path d="M38.3317 14.8755C38.3317 15.4816 38.4043 16.0614 38.5495 16.6148C38.7079 17.1551 38.9454 17.636 39.2622 18.0576C39.579 18.4661 39.9816 18.7955 40.47 19.0459C40.9584 19.2962 41.5392 19.428 42.2123 19.4412C42.6215 19.4544 43.0175 19.4082 43.4003 19.3028C43.7963 19.1974 44.1461 19.0393 44.4497 18.8285C44.7533 18.6045 44.9975 18.3212 45.1823 17.9786C45.3803 17.636 45.499 17.2341 45.5386 16.7729H42.0144V14.4605H48.3502C48.3634 14.9612 48.3568 15.4751 48.3304 16.0021C48.304 16.5292 48.2314 17.0431 48.1126 17.5438C48.007 18.0445 47.842 18.532 47.6176 19.0064C47.4064 19.4675 47.1226 19.8826 46.7662 20.2515C46.2646 20.7786 45.6376 21.2068 44.8853 21.5362C44.1329 21.8525 43.2287 22.0106 42.1727 22.0106C41.0772 22.0106 40.1004 21.8393 39.2424 21.4967C38.3977 21.1409 37.6849 20.6468 37.1041 20.0143C36.5365 19.3819 36.1009 18.6308 35.7973 17.7612C35.507 16.8915 35.3618 15.9362 35.3618 14.8953C35.3618 13.828 35.507 12.8529 35.7973 11.9701C36.1009 11.0873 36.5431 10.3362 37.1239 9.71694C37.7047 9.08447 38.4175 8.59694 39.2622 8.25435C40.1202 7.89859 41.097 7.7207 42.1925 7.7207C42.9449 7.7207 43.6643 7.81953 44.3507 8.01717C45.0371 8.21482 45.6442 8.51129 46.1722 8.90659C46.7002 9.30188 47.1358 9.796 47.479 10.3889C47.8222 10.9819 48.0268 11.6736 48.0928 12.4642H45.3209C45.1889 11.7922 44.8193 11.252 44.2121 10.8435C43.6181 10.4351 42.9053 10.244 42.0738 10.2704C41.4138 10.2967 40.8462 10.4416 40.371 10.7052C39.8958 10.9555 39.5064 11.2915 39.2028 11.7132C38.8992 12.1348 38.6749 12.6223 38.5297 13.1758C38.3977 13.716 38.3317 14.2826 38.3317 14.8755Z" fill="white" fill-opacity="0.4"/>
<path d="M14.3993 12.9199C11.2887 12.9199 11.2154 16.3338 11.2154 17.729C11.2154 19.1243 12.1702 21.4673 15.1581 21.4673C17.9739 21.4673 18.7576 20.0717 18.7576 18.7011C18.7576 17.3305 17.5085 12.9199 14.3993 12.9199Z" fill="white" fill-opacity="0.4"/>
<path d="M21.3087 21.1084L21.519 22.3154L23.6207 22.8805L23.3059 21.6279L21.3087 21.1084Z" fill="white" fill-opacity="0.4"/>
<path d="M26.2631 21.2605L26.0382 20.4814L25.1226 21.6421L25.2727 22.6355L26.2631 21.2605Z" fill="white" fill-opacity="0.4"/>
<path d="M27.1719 18.4335L26.275 18.4306L26.5981 14.81V14.8053C26.6055 14.7253 26.603 14.6439 26.5909 14.5628L26.4323 13.5382C26.1982 12.0329 25.3661 10.6605 24.1495 9.77283L22.2768 8.40728C21.5909 7.90696 20.8446 7.48991 20.0584 7.16771L19.9698 7.13657L19.3504 6.95701C17.6308 3.31505 12.0388 0.436963 11.7745 0.302652L11.1797 0L10.8022 6.0639L1.96265 5.81808L6.54395 11.0142L0.0579866 13.5567L5.10104 15.7933L0 17.8561L4.71114 21.0738L1.86304 25.6215L9.03275 24.2596L10.9459 26.3173L11.4397 26.587L19.3572 27.987L19.5401 28L23.2135 27.8708L23.904 27.4961L24.9783 25.9821L24.5411 25.1903L24.8841 25.1885L25.1584 25.1429L26.8044 24.5901L27.4056 23.8642L28.0491 19.4722L27.1719 18.4335ZM26.5258 23.7307L24.8798 24.2835L20.2448 24.3066L17.3732 22.9317L15.0751 23.4584L9.72823 22.0375L14.5482 24.8269L16.8677 24.4373L19.7496 25.8119L24.2573 25.4521L23.1829 26.9661L19.5095 27.0953L11.592 25.6954L9.33015 23.2626L3.52864 24.6049L5.93242 20.8178L1.69833 17.926L6.312 16.3302L6.93207 16.1158L7.06725 15.6861L7.4173 14.5747L7.71471 13.6302L7.92246 12.9699C8.54822 10.9834 9.91108 9.33659 11.7044 8.36745C13.9061 9.16354 19.3401 11.1764 19.3401 11.1764C19.3401 11.1764 19.1843 9.14038 18.9591 8.41198C18.8851 8.17232 18.7976 7.93773 18.6984 7.70893L19.7261 8.00688C20.4376 8.29867 21.1206 8.67735 21.7588 9.14291L23.6315 10.5085C24.6632 11.2611 25.3554 12.4037 25.5539 13.6798L25.7119 14.6996C25.7293 14.8155 25.5728 14.8651 25.5226 14.7601C24.9833 13.6291 24.6283 12.5144 23.8161 12.5999C23.4529 12.6379 23.153 12.9043 23.0392 13.2577C22.2099 15.8349 22.7112 17.1433 23.4458 18.5508L20.6692 19.4816L20.3686 20.1383C21.7197 19.4356 23.8588 19.3284 23.8588 19.3284L27.1694 19.3386L26.5258 23.7307Z" fill="white" fill-opacity="0.4"/>
</svg>
